<svg width="301" height="235" viewBox="0 0 301 235" fill="none" xmlns="http://www.w3.org/2000/svg">
<path d="M192.467 230.863C192.467 230.863 267.484 155.78 296.717 126.53C299.15 124.097 300.367 120.897 300.367 117.697C300.367 114.497 299.15 111.313 296.717 108.863C267.5 79.6301 192.467 4.56344 192.467 4.56344C190.067 2.14678 186.9 0.946777 183.734 0.946777C180.517 0.946777 177.317 2.18011 174.867 4.63011C169.984 9.49677 169.95 17.3968 174.8 22.2301L257.767 105.197H12.9004C6.00039 105.197 0.400391 110.797 0.400391 117.697C0.400391 124.597 6.00039 130.197 12.9004 130.197H257.767L174.784 213.18C169.967 217.997 170.017 225.88 174.884 230.747C177.35 233.213 180.567 234.447 183.767 234.447C186.934 234.447 190.067 233.247 192.467 230.863Z" fill="#F6BEBE"/>
</svg>
