<svg width="400" height="400" viewBox="0 0 400 400" fill="none" xmlns="http://www.w3.org/2000/svg">
<path d="M200 0C89.5667 0 0 89.55 0 200C0 288.367 57.3 363.333 136.783 389.783C146.767 391.633 150 385.433 150 380.167V342.933C94.3667 355.033 82.7833 319.333 82.7833 319.333C73.6833 296.217 60.5667 290.067 60.5667 290.067C42.4167 277.65 61.95 277.917 61.95 277.917C82.0333 279.317 92.6 298.533 92.6 298.533C110.433 329.1 139.383 320.267 150.8 315.15C152.583 302.233 157.767 293.4 163.5 288.417C119.083 283.333 72.3833 266.183 72.3833 189.567C72.3833 167.717 80.2 149.883 92.9833 135.883C90.9167 130.833 84.0667 110.483 94.9333 82.95C94.9333 82.95 111.733 77.5833 149.95 103.45C165.9 99.0167 183 96.8 200 96.7167C217 96.8 234.117 99.0167 250.1 103.45C288.283 77.5833 305.05 82.95 305.05 82.95C315.933 110.5 309.083 130.85 307.017 135.883C319.85 149.883 327.6 167.733 327.6 189.567C327.6 266.383 280.817 283.3 236.283 288.25C243.45 294.45 250 306.617 250 325.283V380.167C250 385.483 253.2 391.733 263.35 389.767C342.767 363.283 400 288.333 400 200C400 89.55 310.45 0 200 0Z" fill="#FAEBD7"/>
</svg>
