<svg width="400" height="400" viewBox="0 0 400 400" fill="none" xmlns="http://www.w3.org/2000/svg">
<g clip-path="url(#clip0_306_6)">
<path d="M316.667 0H83.3333C37.3167 0 0 37.3167 0 83.3333V316.667C0 362.683 37.3167 400 83.3333 400H316.667C362.7 400 400 362.683 400 316.667V83.3333C400 37.3167 362.7 0 316.667 0ZM242.233 326.5C235.483 327.8 233.333 323.65 233.333 320.1V283.517C233.333 271.067 228.967 262.967 224.167 258.833C253.867 255.533 285.067 244.25 285.067 193.05C285.067 178.483 279.867 166.583 271.35 157.267C272.717 153.9 277.283 140.333 270.033 121.983C270.033 121.983 258.85 118.4 233.4 135.65C222.733 132.65 211.333 131.2 200 131.133C188.667 131.183 177.267 132.65 166.617 135.617C141.15 118.367 129.95 121.95 129.95 121.95C122.717 140.317 127.283 153.867 128.667 157.25C120.133 166.583 114.933 178.467 114.933 193.033C114.933 244.1 146.05 255.55 175.683 258.933C171.867 262.267 168.417 268.133 167.217 276.767C159.6 280.167 140.317 286.05 128.417 265.667C128.417 265.667 121.367 252.867 107.967 251.917C107.967 251.917 94.9667 251.75 107.05 260.033C107.05 260.033 115.8 264.133 121.867 279.533C121.867 279.533 129.583 303.333 166.667 295.267V320.083C166.667 323.6 164.517 327.733 157.867 326.5C104.867 308.883 66.6667 258.9 66.6667 200C66.6667 126.35 126.367 66.6667 200 66.6667C273.633 66.6667 333.333 126.35 333.333 200C333.333 258.883 295.183 308.85 242.233 326.5Z" fill="#456163"/>
</g>
<defs>
<clipPath id="clip0_306_6">
<rect width="400" height="400" fill="white"/>
</clipPath>
</defs>
</svg>
