<svg width="1412" height="840" viewBox="0 0 1412 840" fill="none" xmlns="http://www.w3.org/2000/svg">
<path d="M26.4433 85.9333C19.7926 80.994 10.397 82.3815 5.45771 89.0322C0.518433 95.683 1.90587 105.079 8.55664 110.018L26.4433 85.9333ZM347 207.976L346.849 222.975L347 207.976ZM700.537 91.514C696.968 84.0378 688.015 80.87 680.539 84.4386C673.062 88.0072 669.895 96.9608 673.463 104.437L700.537 91.514ZM660.167 98.6801C653.433 103.506 651.887 112.877 656.713 119.61C661.538 126.344 670.909 127.89 677.643 123.064L660.167 98.6801ZM1097.58 254.362C1089.79 251.556 1081.19 255.6 1078.39 263.395C1075.58 271.189 1079.62 279.783 1087.42 282.589L1097.58 254.362ZM1109.44 264.792C1110.17 256.54 1104.07 249.261 1095.82 248.533C1087.56 247.806 1080.28 253.906 1079.56 262.159L1109.44 264.792ZM780.44 233.311C781.178 225.059 775.086 217.773 766.835 217.035C758.583 216.298 751.297 222.389 750.559 230.641L780.44 233.311ZM750.587 230.877C749.704 239.114 755.666 246.507 763.903 247.39C772.14 248.273 779.533 242.311 780.416 234.074L750.587 230.877ZM937.651 212.284C943.069 218.552 952.541 219.241 958.809 213.824C965.076 208.407 965.766 198.935 960.349 192.667L937.651 212.284ZM958.463 190.616C952.797 184.572 943.304 184.266 937.26 189.932C931.217 195.598 930.911 205.09 936.577 211.134L958.463 190.616ZM881.261 244.596C877.633 237.148 868.655 234.051 861.207 237.679C853.759 241.307 850.662 250.285 854.29 257.733L881.261 244.596ZM1037.48 332.799C1030.48 337.228 1028.39 346.494 1032.82 353.495C1037.25 360.496 1046.52 362.581 1053.52 358.153L1037.48 332.799ZM1335.95 538.907C1329.56 544.179 1328.66 553.634 1333.93 560.023C1339.2 566.413 1348.66 567.318 1355.05 562.045L1335.95 538.907ZM1357.19 559.98C1363.27 554.351 1363.63 544.86 1358 538.783C1352.37 532.705 1342.88 532.342 1336.81 537.971L1357.19 559.98ZM1129.65 419.907C1136.32 414.993 1137.74 405.603 1132.83 398.933C1127.92 392.263 1118.53 390.839 1111.86 395.753L1129.65 419.907ZM1102.67 403.267C1096.27 408.52 1095.33 417.971 1100.58 424.377C1105.84 430.783 1115.29 431.718 1121.69 426.466L1102.67 403.267ZM1191.79 449.926C1183.53 450.607 1177.39 457.851 1178.07 466.108C1178.75 474.364 1186 480.505 1194.25 479.824L1191.79 449.926ZM1163.09 553.708C1155.63 550.1 1146.66 553.22 1143.05 560.678C1139.44 568.135 1142.56 577.105 1150.02 580.713L1163.09 553.708ZM987.776 670.064C989.261 661.914 983.858 654.103 975.708 652.618C967.557 651.133 959.747 656.537 958.262 664.687L987.776 670.064ZM30.1055 90.3732C27.2876 82.5829 18.6879 78.5521 10.8976 81.37C3.10737 84.188 -0.923485 92.7877 1.89447 100.578L30.1055 90.3732ZM476.539 433.131C483.86 429.254 486.653 420.177 482.776 412.856C478.899 405.534 469.821 402.742 462.5 406.619L476.539 433.131ZM459.164 453.848C463.568 446.831 461.449 437.573 454.432 433.169C447.414 428.766 438.156 430.885 433.753 437.902L459.164 453.848ZM995.985 656.111C1001.64 650.055 1001.31 640.563 995.255 634.91C989.199 629.257 979.708 629.583 974.055 635.639L995.985 656.111ZM412.981 488.95C410.814 496.946 415.538 505.185 423.534 507.353C431.53 509.52 439.769 504.796 441.936 496.8L412.981 488.95ZM673.875 559.212C669.863 566.46 672.487 575.588 679.735 579.6C686.983 583.612 696.111 580.989 700.123 573.741L673.875 559.212ZM702.122 569.745C706.137 562.498 703.516 553.369 696.27 549.355C689.023 545.34 679.894 547.96 675.88 555.206L702.122 569.745ZM563.558 490.127C570.546 485.677 572.602 476.405 568.152 469.417C563.702 462.43 554.43 460.373 547.442 464.823L563.558 490.127ZM540.935 469.079C534.187 473.884 532.612 483.25 537.417 489.998C542.223 496.747 551.589 498.322 558.337 493.516L540.935 469.079ZM577.385 515.481C569.101 515.481 562.385 522.197 562.385 530.481C562.385 538.765 569.101 545.481 577.385 545.481L577.385 515.481ZM956.199 680.893C954.526 689.007 959.747 696.94 967.861 698.613C975.975 700.286 983.908 695.064 985.581 686.95L956.199 680.893ZM1163.64 708.957C1157.11 714.057 1155.96 723.484 1161.06 730.012C1166.16 736.54 1175.59 737.696 1182.11 732.596L1163.64 708.957ZM1186.27 726.513C1192.98 721.646 1194.46 712.266 1189.6 705.562C1184.73 698.859 1175.35 697.37 1168.65 702.237L1186.27 726.513ZM1109.96 698.375C1109.96 690.091 1103.24 683.375 1094.96 683.375C1086.67 683.375 1079.96 690.091 1079.96 698.375L1109.96 698.375ZM17.5 97.9756C8.55664 110.018 8.56071 110.021 8.56533 110.024C8.56761 110.026 8.5728 110.03 8.57737 110.033C8.5865 110.04 8.59787 110.048 8.61146 110.058C8.63863 110.079 8.6747 110.105 8.7196 110.138C8.80941 110.204 8.93457 110.296 9.09468 110.412C9.41489 110.646 9.87493 110.978 10.4715 111.404C11.6646 112.254 13.4043 113.477 15.6642 115.018C20.1834 118.101 26.7874 122.461 35.2657 127.678C52.2143 138.106 76.6998 151.984 107.036 165.912C167.594 193.717 252.107 222.02 346.849 222.975L347.152 192.976C258.014 192.078 177.777 165.381 119.554 138.649C90.5003 125.309 67.0884 112.034 50.9869 102.127C42.9402 97.176 36.7309 93.0732 32.5683 90.2341C30.4873 88.8147 28.9188 87.7119 27.889 86.9776C27.3742 86.6104 26.9941 86.3355 26.752 86.1593C26.631 86.0711 26.5445 86.0077 26.4929 85.9698C26.4671 85.9508 26.45 85.9382 26.4417 85.9321C26.4376 85.929 26.4357 85.9276 26.4359 85.9278C26.4361 85.9279 26.4379 85.9293 26.438 85.9293C26.4404 85.9311 26.4433 85.9333 17.5 97.9756ZM346.849 222.975C441.677 223.931 529.102 196.101 592.368 168.105C624.073 154.075 649.924 139.909 667.872 129.071C676.84 123.656 683.9 119.033 688.778 115.629C691.192 113.945 693.201 112.469 694.685 111.29C695.379 110.738 696.225 110.041 696.998 109.302C697.316 108.998 698.082 108.254 698.857 107.237C699.199 106.789 700.053 105.634 700.767 103.979C701.155 103.08 703.488 97.6969 700.537 91.514L673.463 104.437C670.526 98.2842 672.855 92.9444 673.218 92.1016C673.908 90.5018 674.719 89.4167 674.998 89.0503C675.649 88.197 676.214 87.6676 676.256 87.6273C676.477 87.4164 676.471 87.4449 676.02 87.8034C675.214 88.4437 673.763 89.5246 671.611 91.026C667.358 93.9935 660.863 98.2586 652.365 103.39C635.38 113.646 610.652 127.208 580.228 140.671C519.235 167.661 436.204 193.874 347.152 192.976L346.849 222.975ZM677.643 123.064C776.468 52.2385 850.595 28.512 905.471 30.0717C959.533 31.6082 997.269 57.7738 1023.86 92.8772C1050.79 128.408 1065.96 172.813 1073.51 208.586C1077.27 226.387 1079.05 241.618 1079.52 251.976C1079.76 257.267 1079.64 260.764 1079.42 262.524C1079.29 263.647 1079.24 262.996 1079.82 261.648C1080.06 261.093 1081.11 258.718 1083.75 256.62C1087.28 253.822 1092.48 252.526 1097.58 254.362L1087.42 282.589C1092.93 284.574 1098.52 283.204 1102.4 280.119C1105.41 277.735 1106.79 274.862 1107.34 273.603C1108.53 270.851 1108.98 267.981 1109.2 266.142C1109.71 261.981 1109.76 256.59 1109.49 250.609C1108.93 238.42 1106.91 221.565 1102.86 202.389C1094.8 164.208 1078.34 115.1 1047.78 74.7602C1016.89 33.9929 971.288 1.93023 906.323 0.0837721C842.173 -1.73955 761.584 25.996 660.167 98.6801L677.643 123.064ZM1079.56 262.159C1076.32 298.842 1056.54 323.62 1027.84 338.728C998.553 354.148 959.808 359.421 920.905 354.892C882.033 350.365 844.731 336.248 818.365 314.892C792.294 293.775 777.497 266.251 780.44 233.311L750.559 230.641C746.532 275.702 767.508 312.305 799.483 338.204C831.164 363.865 874.182 379.654 917.435 384.69C960.656 389.723 1005.84 384.214 1041.82 365.274C1078.39 346.022 1105.21 312.861 1109.44 264.792L1079.56 262.159ZM780.416 234.074C783.205 208.045 806.983 186.975 840.853 180.437C874.122 174.015 912.348 183.008 937.651 212.284L960.349 192.667C926.842 153.899 877.069 142.892 835.167 150.981C793.865 158.954 755.299 186.905 750.587 230.877L780.416 234.074ZM936.577 211.134C944.379 219.456 946.261 228.651 944.682 237.407C943.018 246.633 937.378 255.677 929.615 261.819C921.872 267.945 913.336 270.234 905.895 268.646C898.795 267.13 889.433 261.374 881.261 244.596L854.29 257.733C865.317 280.372 881.148 294.039 899.631 297.985C917.773 301.857 935.21 295.647 948.229 285.346C961.227 275.062 971.136 259.752 974.206 242.731C977.36 225.239 973.161 206.294 958.463 190.616L936.577 211.134ZM1053.52 358.153C1164.05 288.236 1270.57 307.592 1330.69 356.878C1360.92 381.656 1378.95 413.488 1381.39 445.219C1383.78 476.413 1371.28 509.755 1335.95 538.907L1355.05 562.045C1396.97 527.446 1414.52 484.993 1411.3 442.927C1408.12 401.399 1384.88 362.507 1349.71 333.677C1279.05 275.747 1158.33 256.354 1037.48 332.799L1053.52 358.153ZM1336.81 537.971C1312.82 560.19 1279.73 570.165 1244.44 570.216C1209.13 570.266 1172.95 560.337 1144.51 544.378C1115.62 528.169 1097.29 507.301 1092.9 487.005C1088.88 468.406 1095.61 444.983 1129.65 419.907L1111.86 395.753C1071.94 425.157 1056.23 459.349 1063.58 493.345C1070.56 525.644 1097.41 552.351 1129.83 570.541C1162.7 588.981 1203.94 600.274 1244.48 600.216C1285.03 600.157 1326.2 588.69 1357.19 559.98L1336.81 537.971ZM1121.69 426.466C1169.98 386.876 1211.6 398.513 1227.2 414.121C1235.33 422.261 1235.44 429.348 1233.19 433.549C1230.43 438.728 1220.27 447.577 1191.79 449.926L1194.25 479.824C1226.36 477.177 1249.65 466.408 1259.65 447.689C1270.18 427.992 1262.39 406.899 1248.42 392.917C1219.81 364.282 1160.43 355.911 1102.67 403.267L1121.69 426.466ZM1150.02 580.713C1201.81 605.767 1235.79 630.275 1256.45 652.869C1276.99 675.336 1283.72 695.145 1283.02 711.63C1282.33 728.222 1273.99 744.291 1258.74 758.938C1243.46 773.623 1221.89 786.153 1196.92 795.131C1146.59 813.232 1086.49 815.534 1043.44 796.534C1022.25 787.182 1005.56 772.879 995.495 753.016C985.406 733.108 981.209 706.109 987.776 670.064L958.262 664.687C950.813 705.574 955.025 739.524 968.736 766.578C982.469 793.677 1004.97 812.348 1031.33 823.979C1083.36 846.946 1151.77 843.25 1207.08 823.361C1234.93 813.345 1260.47 798.882 1279.53 780.573C1298.63 762.226 1311.89 739.299 1313 712.889C1314.11 686.373 1302.86 659.176 1278.59 632.627C1254.44 606.206 1216.79 579.69 1163.09 553.708L1150.02 580.713ZM1.89447 100.578C54.6771 246.496 137 347.931 224.214 403.977C311.199 459.877 404.54 471.257 476.539 433.131L462.5 406.619C402.919 438.169 321.374 430.755 240.432 378.739C159.718 326.87 81.0708 231.267 30.1055 90.3732L1.89447 100.578ZM433.753 437.902C398.853 493.519 405.054 550.919 436.388 600.204C467.23 648.715 522.278 689.563 586.575 716.463C714.577 770.014 888.264 771.506 995.985 656.111L974.055 635.639C878.275 738.244 719.932 739.735 598.153 688.787C537.56 663.437 488.281 625.91 461.705 584.108C435.621 543.081 431.314 498.231 459.164 453.848L433.753 437.902ZM441.936 496.8C454.066 452.058 479.633 425.73 509.182 412.617C539.194 399.299 574.603 399.077 606.445 409.329C638.361 419.605 665.11 439.872 678.85 465.578C692.225 490.599 694.223 522.451 673.875 559.212L700.123 573.741C725.025 528.751 723.831 486.09 705.308 451.436C687.15 417.467 653.295 392.896 615.639 380.772C577.908 368.624 534.775 368.439 497.014 385.196C458.789 402.158 427.352 435.942 412.981 488.95L441.936 496.8ZM675.88 555.206C663.597 577.378 646.085 586.579 627.826 588.174C608.828 589.833 587.979 583.256 570.984 571.543C553.793 559.695 542.818 544.23 540.5 530.257C538.455 517.929 542.587 503.484 563.558 490.127L547.442 464.823C518.209 483.442 506.551 508.922 510.905 535.167C514.986 559.768 532.6 581.524 553.96 596.245C575.516 611.101 603.182 620.44 630.435 618.06C658.427 615.616 684.904 600.823 702.122 569.745L675.88 555.206ZM558.337 493.516C567.169 487.227 573.782 487.259 578.17 488.648C583.135 490.22 587.574 494.285 590.098 499.458C592.718 504.829 592.213 508.953 591.208 510.824C590.671 511.825 588.263 515.481 577.385 515.481L577.385 545.481C595.574 545.481 610.32 538.653 617.642 525.012C624.496 512.241 622.554 497.565 617.06 486.304C611.469 474.845 601.115 464.446 587.226 460.048C572.762 455.468 556.46 458.024 540.935 469.079L558.337 493.516ZM985.581 686.95C991.889 656.351 1009.29 640.851 1030.92 634.137C1053.64 627.082 1082.21 629.52 1108.8 638.528C1135.56 647.597 1157.4 662.318 1167.72 676.624C1172.78 683.622 1174.26 689.342 1173.88 693.654C1173.53 697.618 1171.37 702.915 1163.64 708.957L1182.11 732.596C1194.76 722.716 1202.51 710.407 1203.76 696.316C1204.99 682.574 1199.79 669.789 1192.05 659.066C1176.8 637.931 1148.62 620.347 1118.42 610.115C1088.05 599.823 1052.69 595.965 1022.02 605.486C990.25 615.349 964.773 639.3 956.199 680.893L985.581 686.95ZM1168.65 702.237C1152.69 713.822 1135.96 717.806 1124.77 716.107C1119.38 715.289 1115.92 713.297 1113.84 710.993C1111.86 708.799 1109.96 705.057 1109.96 698.375L1079.96 698.375C1079.96 711.193 1083.81 722.514 1091.59 731.117C1099.27 739.61 1109.6 744.148 1120.27 745.768C1141.2 748.945 1165.73 741.429 1186.27 726.513L1168.65 702.237Z" fill="#C48585"/>
</svg>
