<svg width="1413" height="1413" viewBox="0 0 1413 1413" fill="none" xmlns="http://www.w3.org/2000/svg">
<path d="M27.4848 398.558C20.8341 393.619 11.4385 395.006 6.49921 401.657C1.55994 408.308 2.94738 417.704 9.59815 422.643L27.4848 398.558ZM348.042 520.601L347.891 535.6L348.042 520.601ZM701.579 404.139C698.01 396.663 689.056 393.495 681.58 397.064C674.104 400.632 670.936 409.586 674.505 417.062L701.579 404.139ZM661.208 411.305C654.475 416.131 652.928 425.502 657.754 432.235C662.58 438.969 671.951 440.515 678.684 435.689L661.208 411.305ZM1098.62 566.987C1090.83 564.181 1082.23 568.225 1079.43 576.02C1076.62 583.814 1080.67 592.408 1088.46 595.214L1098.62 566.987ZM1110.48 577.417C1111.21 569.165 1105.11 561.886 1096.86 561.158C1088.61 560.431 1081.33 566.531 1080.6 574.784L1110.48 577.417ZM781.482 545.936C782.219 537.684 776.128 530.398 767.876 529.66C759.625 528.923 752.338 535.014 751.601 543.266L781.482 545.936ZM751.628 543.502C750.746 551.739 756.708 559.132 764.945 560.015C773.182 560.898 780.575 554.936 781.458 546.699L751.628 543.502ZM938.693 524.909C944.11 531.177 953.583 531.866 959.85 526.449C966.118 521.032 966.807 511.56 961.39 505.292L938.693 524.909ZM959.504 503.241C953.838 497.197 944.346 496.891 938.302 502.557C932.258 508.223 931.952 517.715 937.618 523.759L959.504 503.241ZM882.302 557.221C878.674 549.773 869.696 546.676 862.248 550.304C854.801 553.932 851.704 562.91 855.331 570.358L882.302 557.221ZM1038.52 645.424C1031.52 649.853 1029.44 659.119 1033.86 666.12C1038.29 673.121 1047.56 675.206 1054.56 670.778L1038.52 645.424ZM1336.99 851.532C1330.6 856.804 1329.7 866.259 1334.97 872.648C1340.25 879.038 1349.7 879.943 1356.09 874.67L1336.99 851.532ZM1358.23 872.605C1364.31 866.976 1364.68 857.485 1359.05 851.408C1353.42 845.33 1343.93 844.967 1337.85 850.596L1358.23 872.605ZM1130.69 732.532C1137.36 727.618 1138.79 718.228 1133.87 711.558C1128.96 704.888 1119.57 703.464 1112.9 708.378L1130.69 732.532ZM1103.71 715.892C1097.31 721.145 1096.37 730.596 1101.63 737.002C1106.88 743.408 1116.33 744.343 1122.74 739.091L1103.71 715.892ZM1192.83 762.551C1184.57 763.232 1178.43 770.476 1179.11 778.733C1179.79 786.989 1187.04 793.13 1195.29 792.449L1192.83 762.551ZM1164.13 866.333C1156.67 862.725 1147.7 865.845 1144.09 873.303C1140.49 880.76 1143.61 889.73 1151.06 893.338L1164.13 866.333ZM988.818 982.689C990.302 974.539 984.899 966.728 976.749 965.243C968.599 963.758 960.788 969.162 959.303 977.312L988.818 982.689ZM31.147 402.998C28.3291 395.208 19.7294 391.177 11.9391 393.995C4.14887 396.813 0.118019 405.413 2.93598 413.203L31.147 402.998ZM477.581 745.756C484.902 741.879 487.694 732.802 483.817 725.481C479.94 718.159 470.863 715.367 463.542 719.244L477.581 745.756ZM460.206 766.473C464.609 759.456 462.49 750.198 455.473 745.794C448.456 741.391 439.198 743.51 434.795 750.527L460.206 766.473ZM997.026 968.736C1002.68 962.68 1002.35 953.188 996.297 947.535C990.241 941.882 980.749 942.208 975.096 948.264L997.026 968.736ZM414.023 801.575C411.855 809.571 416.58 817.81 424.575 819.978C432.571 822.145 440.81 817.421 442.978 809.425L414.023 801.575ZM674.917 871.837C670.905 879.085 673.528 888.213 680.776 892.225C688.024 896.237 697.152 893.614 701.164 886.366L674.917 871.837ZM703.163 882.37C707.178 875.123 704.558 865.994 697.311 861.98C690.065 857.965 680.936 860.585 676.921 867.831L703.163 882.37ZM564.6 802.752C571.587 798.302 573.644 789.03 569.194 782.042C564.743 775.055 555.471 772.998 548.484 777.448L564.6 802.752ZM541.977 781.704C535.229 786.509 533.654 795.875 538.459 802.623C543.264 809.372 552.63 810.947 559.378 806.141L541.977 781.704ZM578.426 828.106C570.142 828.106 563.426 834.822 563.426 843.106C563.426 851.39 570.142 858.106 578.426 858.106L578.426 828.106ZM957.24 993.518C955.567 1001.63 960.789 1009.57 968.903 1011.24C977.016 1012.91 984.95 1007.69 986.622 999.575L957.24 993.518ZM1164.68 1021.58C1158.16 1026.68 1157 1036.11 1162.1 1042.64C1167.2 1049.16 1176.63 1050.32 1183.16 1045.22L1164.68 1021.58ZM1187.31 1039.14C1194.02 1034.27 1195.51 1024.89 1190.64 1018.19C1185.77 1011.48 1176.39 1009.99 1169.69 1014.86L1187.31 1039.14ZM1111 1011C1111 1002.72 1104.28 996 1096 996C1087.72 996 1081 1002.72 1081 1011L1111 1011ZM18.5415 410.601C9.59815 422.643 9.60221 422.646 9.60683 422.649C9.60912 422.651 9.6143 422.655 9.61887 422.658C9.62801 422.665 9.63937 422.673 9.65296 422.683C9.68014 422.704 9.7162 422.73 9.76111 422.763C9.85091 422.829 9.97607 422.921 10.1362 423.037C10.4564 423.271 10.9164 423.603 11.513 424.029C12.7061 424.879 14.4458 426.102 16.7057 427.643C21.2249 430.726 27.8289 435.086 36.3072 440.303C53.2558 450.731 77.7413 464.609 108.078 478.537C168.635 506.342 253.148 534.645 347.891 535.6L348.193 505.601C259.055 504.703 178.818 478.006 120.596 451.274C91.5419 437.934 68.1299 424.659 52.0284 414.752C43.9817 409.801 37.7725 405.698 33.6098 402.859C31.5288 401.44 29.9603 400.337 28.9305 399.603C28.4157 399.235 28.0356 398.96 27.7935 398.784C27.6725 398.696 27.586 398.633 27.5344 398.595C27.5086 398.576 27.4915 398.563 27.4833 398.557C27.4791 398.554 27.4772 398.553 27.4774 398.553C27.4776 398.553 27.4794 398.554 27.4795 398.554C27.4819 398.556 27.4848 398.558 18.5415 410.601ZM347.891 535.6C442.718 536.556 530.144 508.726 593.409 480.73C625.114 466.7 650.965 452.534 668.914 441.696C677.882 436.281 684.942 431.658 689.82 428.254C692.234 426.57 694.242 425.094 695.727 423.915C696.42 423.363 697.267 422.666 698.039 421.927C698.357 421.623 699.124 420.879 699.899 419.862C700.24 419.414 701.095 418.259 701.809 416.604C702.196 415.705 704.53 410.322 701.579 404.139L674.505 417.062C671.568 410.909 673.896 405.569 674.26 404.727C674.949 403.127 675.76 402.042 676.04 401.675C676.69 400.822 677.256 400.293 677.298 400.252C677.518 400.041 677.512 400.07 677.061 400.428C676.256 401.069 674.805 402.15 672.653 403.651C668.4 406.619 661.905 410.884 653.406 416.015C636.422 426.271 611.694 439.833 581.269 453.296C520.277 480.286 437.246 506.499 348.193 505.601L347.891 535.6ZM678.684 435.689C777.509 364.864 851.637 341.137 906.513 342.697C960.574 344.233 998.31 370.399 1024.91 405.502C1051.83 441.033 1067 485.438 1074.55 521.211C1078.31 539.012 1080.09 554.243 1080.56 564.601C1080.8 569.892 1080.68 573.389 1080.46 575.149C1080.33 576.272 1080.28 575.621 1080.86 574.273C1081.11 573.718 1082.15 571.343 1084.8 569.245C1088.32 566.447 1093.52 565.151 1098.62 566.987L1088.46 595.214C1093.97 597.199 1099.56 595.829 1103.45 592.744C1106.45 590.36 1107.83 587.487 1108.38 586.228C1109.57 583.476 1110.02 580.606 1110.24 578.767C1110.75 574.606 1110.8 569.215 1110.53 563.234C1109.97 551.045 1107.95 534.19 1103.9 515.014C1095.84 476.833 1079.38 427.725 1048.82 387.385C1017.93 346.618 972.33 314.555 907.365 312.709C843.214 310.885 762.626 338.621 661.208 411.305L678.684 435.689ZM1080.6 574.784C1077.37 611.467 1057.58 636.245 1028.88 651.353C999.594 666.773 960.85 672.046 921.946 667.517C883.074 662.99 845.772 648.873 819.407 627.517C793.335 606.4 778.538 578.876 781.482 545.936L751.601 543.266C747.574 588.327 768.549 624.93 800.524 650.829C832.205 676.49 875.223 692.279 918.476 697.315C961.698 702.348 1006.88 696.839 1042.86 677.899C1079.43 658.647 1106.25 625.486 1110.48 577.417L1080.6 574.784ZM781.458 546.699C784.247 520.67 808.024 499.6 841.894 493.062C875.164 486.64 913.39 495.633 938.693 524.909L961.39 505.292C927.883 466.524 878.11 455.517 836.208 463.606C794.907 471.579 756.34 499.53 751.628 543.502L781.458 546.699ZM937.618 523.759C945.42 532.081 947.302 541.276 945.723 550.032C944.059 559.258 938.419 568.302 930.656 574.444C922.914 580.57 914.378 582.859 906.936 581.271C899.837 579.755 890.475 573.999 882.302 557.221L855.331 570.358C866.358 592.997 882.189 606.664 900.673 610.61C918.814 614.482 936.252 608.272 949.271 597.971C962.269 587.687 972.177 572.377 975.247 555.356C978.402 537.864 974.202 518.919 959.504 503.241L937.618 523.759ZM1054.56 670.778C1165.09 600.861 1271.62 620.217 1331.73 669.503C1361.96 694.281 1380 726.113 1382.43 757.844C1384.82 789.038 1372.32 822.38 1336.99 851.532L1356.09 874.67C1398.01 840.071 1415.56 797.618 1412.34 755.552C1409.16 714.024 1385.92 675.132 1350.75 646.302C1280.09 588.372 1159.37 568.979 1038.52 645.424L1054.56 670.778ZM1337.85 850.596C1313.86 872.815 1280.77 882.79 1245.48 882.841C1210.18 882.891 1173.99 872.962 1145.55 857.003C1116.67 840.794 1098.33 819.926 1093.94 799.63C1089.92 781.031 1096.65 757.608 1130.69 732.532L1112.9 708.378C1072.98 737.782 1057.27 771.974 1064.62 805.97C1071.6 838.269 1098.46 864.976 1130.87 883.166C1163.74 901.606 1204.98 912.899 1245.52 912.841C1286.07 912.782 1327.24 901.315 1358.23 872.605L1337.85 850.596ZM1122.74 739.091C1171.02 699.501 1212.64 711.138 1228.24 726.746C1236.37 734.886 1236.48 741.973 1234.24 746.174C1231.47 751.353 1221.31 760.202 1192.83 762.551L1195.29 792.449C1227.4 789.802 1250.69 779.033 1260.69 760.314C1271.22 740.617 1263.43 719.524 1249.46 705.542C1220.85 676.907 1161.47 668.536 1103.71 715.892L1122.74 739.091ZM1151.06 893.338C1202.85 918.392 1236.84 942.9 1257.49 965.494C1278.03 987.961 1284.76 1007.77 1284.07 1024.25C1283.37 1040.85 1275.03 1056.92 1259.79 1071.56C1244.5 1086.25 1222.93 1098.78 1197.97 1107.76C1147.63 1125.86 1087.53 1128.16 1044.48 1109.16C1023.29 1099.81 1006.6 1085.5 996.537 1065.64C986.448 1045.73 982.25 1018.73 988.818 982.689L959.303 977.312C951.854 1018.2 956.067 1052.15 969.777 1079.2C983.511 1106.3 1006.01 1124.97 1032.37 1136.6C1084.41 1159.57 1152.81 1155.87 1208.12 1135.99C1235.97 1125.97 1261.51 1111.51 1280.57 1093.2C1299.67 1074.85 1312.93 1051.92 1314.04 1025.51C1315.15 998.998 1303.9 971.801 1279.63 945.252C1255.48 918.831 1217.83 892.315 1164.13 866.333L1151.06 893.338ZM2.93598 413.203C55.7186 559.121 138.041 660.556 225.255 716.602C312.241 772.502 405.582 783.882 477.581 745.756L463.542 719.244C403.961 750.794 322.416 743.38 241.474 691.364C160.759 639.495 82.1123 543.892 31.147 402.998L2.93598 413.203ZM434.795 750.527C399.895 806.144 406.096 863.544 437.43 912.829C468.271 961.34 523.32 1002.19 587.616 1029.09C715.618 1082.64 889.306 1084.13 997.026 968.736L975.096 948.264C879.316 1050.87 720.974 1052.36 599.195 1001.41C538.601 976.062 489.322 938.535 462.746 896.733C436.663 855.706 432.356 810.856 460.206 766.473L434.795 750.527ZM442.978 809.425C455.107 764.683 480.675 738.355 510.224 725.242C540.235 711.924 575.644 711.702 607.486 721.954C639.402 732.23 666.151 752.497 679.892 778.203C693.266 803.224 695.265 835.076 674.917 871.837L701.164 886.366C726.067 841.376 724.873 798.715 706.349 764.061C688.192 730.092 654.337 705.521 616.68 693.397C578.949 681.249 535.817 681.064 498.055 697.821C459.831 714.783 428.393 748.567 414.023 801.575L442.978 809.425ZM676.921 867.831C664.639 890.003 647.127 899.204 628.867 900.799C609.869 902.458 589.021 895.881 572.025 884.168C554.834 872.32 543.86 856.855 541.542 842.882C539.497 830.554 543.628 816.109 564.6 802.752L548.484 777.448C519.251 796.067 507.592 821.547 511.946 847.792C516.028 872.393 533.642 894.149 555.001 908.87C576.557 923.726 604.223 933.065 631.477 930.685C659.469 928.241 685.946 913.448 703.163 882.37L676.921 867.831ZM559.378 806.141C568.211 799.852 574.823 799.884 579.212 801.273C584.177 802.845 588.615 806.91 591.139 812.083C593.76 817.454 593.255 821.578 592.25 823.449C591.713 824.45 589.304 828.106 578.426 828.106L578.426 858.106C596.616 858.106 611.361 851.278 618.683 837.637C625.537 824.866 623.596 810.19 618.101 798.929C612.511 787.47 602.156 777.071 588.268 772.673C573.803 768.093 557.501 770.649 541.977 781.704L559.378 806.141ZM986.622 999.575C992.93 968.976 1010.33 953.476 1031.96 946.762C1054.68 939.707 1083.25 942.145 1109.84 951.153C1136.6 960.222 1158.44 974.943 1168.77 989.249C1173.82 996.247 1175.31 1001.97 1174.92 1006.28C1174.57 1010.24 1172.42 1015.54 1164.68 1021.58L1183.16 1045.22C1195.8 1035.34 1203.55 1023.03 1204.8 1008.94C1206.03 995.199 1200.83 982.414 1193.09 971.691C1177.84 950.556 1149.66 932.972 1119.46 922.74C1089.09 912.448 1053.73 908.59 1023.06 918.111C991.292 927.974 965.814 951.925 957.24 993.518L986.622 999.575ZM1169.69 1014.86C1153.73 1026.45 1137 1030.43 1125.81 1028.73C1120.42 1027.91 1116.97 1025.92 1114.88 1023.62C1112.9 1021.42 1111 1017.68 1111 1011L1081 1011C1081 1023.82 1084.85 1035.14 1092.63 1043.74C1100.31 1052.23 1110.64 1056.77 1121.31 1058.39C1142.25 1061.57 1166.77 1054.05 1187.31 1039.14L1169.69 1014.86Z" fill="#FAEBD7"/>
</svg>
