<svg width="400" height="400" viewBox="0 0 400 400" fill="none" xmlns="http://www.w3.org/2000/svg">
<g clip-path="url(#clip0_306_2)">
<path d="M316.667 0H83.3333C37.3167 0 0 37.3167 0 83.3333V316.667C0 362.683 37.3167 400 83.3333 400H316.667C362.7 400 400 362.683 400 316.667V83.3333C400 37.3167 362.7 0 316.667 0ZM133.333 316.667H83.3333V133.333H133.333V316.667ZM108.333 112.2C92.2333 112.2 79.1667 99.0333 79.1667 82.8C79.1667 66.5667 92.2333 53.4 108.333 53.4C124.433 53.4 137.5 66.5667 137.5 82.8C137.5 99.0333 124.45 112.2 108.333 112.2ZM333.333 316.667H283.333V223.267C283.333 167.133 216.667 171.383 216.667 223.267V316.667H166.667V133.333H216.667V162.75C239.933 119.65 333.333 116.467 333.333 204.017V316.667Z" fill="#456163"/>
</g>
<defs>
<clipPath id="clip0_306_2">
<rect width="400" height="400" fill="white"/>
</clipPath>
</defs>
</svg>
