<svg width="417" height="400" viewBox="0 0 417 400" fill="none" xmlns="http://www.w3.org/2000/svg">
<path d="M416.5 223.809V399.5H330.833V253.93C330.833 231.865 324.255 215.675 314.33 205.101C304.407 194.527 291.171 189.607 277.941 190.026C251.459 190.866 225.08 213.076 225.08 253.93V399.5H139.743V122.239H225.062V159.217L226.002 159.455C244.082 125.964 291.694 107.892 334.853 115.317C356.41 119.025 376.814 129.091 391.828 146.738C406.841 164.383 416.5 189.645 416.5 223.809ZM86.0275 43.4783C86.0275 67.2238 66.9609 86.4565 43.4375 86.4565C19.9141 86.4565 0.8475 67.2238 0.8475 43.4783C0.8475 19.75 19.9142 0.5 43.4375 0.5C66.9607 0.5 86.0275 19.75 86.0275 43.4783ZM0.5 399.5V122.239H86.375V399.5H0.5Z" stroke="#3F4E4F"/>
</svg>
