<svg width="500" height="500" viewBox="0 0 500 500" fill="none" xmlns="http://www.w3.org/2000/svg">
<g clip-path="url(#clip0_316_25)">
<path d="M54.1042 162.708L156.417 443C84.875 408.25 35.5417 334.875 35.5417 250C35.5417 218.896 42.2083 189.375 54.1042 162.708V162.708ZM394.771 239.167C394.771 212.667 385.25 194.313 377.083 180.021C366.229 162.333 356.021 147.396 356.021 129.708C356.021 109.333 371.583 90.5417 394.813 91.8125C356.667 56.875 305.833 35.5417 250 35.5417C175.083 35.5417 109.167 73.9792 70.8125 132.208C83.8333 132.625 101.833 132.875 141.771 129.75C153.333 129.042 154.688 146.042 143.146 147.396C143.146 147.396 131.521 148.75 118.604 149.438L196.708 381.729L243.646 240.979L210.229 149.438C198.667 148.75 187.729 147.396 187.729 147.396C176.167 146.708 177.521 129.042 189.083 129.729C235.167 133.271 257.229 133.292 302.729 129.729C314.292 129.042 315.667 146.042 304.104 147.396C304.104 147.396 292.458 148.75 279.563 149.438L357.063 379.958L378.458 308.479C387.708 278.833 394.771 257.521 394.771 239.167V239.167ZM253.771 268.75L189.417 455.729C208.625 461.375 228.958 464.458 250 464.458C274.979 464.458 298.938 460.146 321.208 452.313C319.417 449.417 254.938 271.958 253.771 268.75V268.75ZM438.188 147.104C442.854 181.5 436.125 213.938 423.333 245.979L357.812 435.375C421.583 398.208 464.458 329.125 464.458 250C464.458 212.708 454.938 177.646 438.188 147.104ZM500 250C500 387.854 387.833 500 250 500C112.167 500 0 387.854 0 250C0 112.146 112.146 0 250 0C387.854 0 500 112.146 500 250ZM488.542 250C488.542 118.479 381.521 11.4583 250 11.4583C118.479 11.4583 11.4583 118.479 11.4583 250C11.4583 381.521 118.479 488.542 250 488.542C381.521 488.542 488.542 381.521 488.542 250Z" fill="#FAEBD7"/>
</g>
<defs>
<clipPath id="clip0_316_25">
<rect width="500" height="500" fill="white"/>
</clipPath>
</defs>
</svg>
